<?xml version="1.0" encoding="UTF-8" standalone="no"?>
<!DOCTYPE svg PUBLIC "-//W3C//DTD SVG 1.1//EN"
 "http://www.w3.org/Graphics/SVG/1.1/DTD/svg11.dtd">
<!-- Generated by graphviz version 2.38.0 (20140413.2041)
 -->
<!-- Title: %3 Pages: 1 -->
<svg width="602pt" height="258pt"
 viewBox="0.00 0.00 602.00 258.00" xmlns="http://www.w3.org/2000/svg" xmlns:xlink="http://www.w3.org/1999/xlink">
<g id="graph0" class="graph" transform="scale(1 1) rotate(0) translate(4 254)">
<title>%3</title>
<polygon fill="white" stroke="none" points="-4,4 -4,-254 598,-254 598,4 -4,4"/>
<g id="clust1" class="cluster"><title>cluster_0</title>
<polygon fill="none" stroke="blue" points="82,-76 82,-148 332,-148 332,-76 82,-76"/>
</g>
<g id="clust2" class="cluster"><title>cluster_1</title>
<polygon fill="none" stroke="blue" points="352,-68 352,-228 422,-228 422,-68 352,-68"/>
</g>
<g id="clust3" class="cluster"><title>cluster_2</title>
<polygon fill="none" stroke="blue" points="442,-82 442,-242 512,-242 512,-82 442,-82"/>
</g>
<!-- X_P -->
<g id="node1" class="node"><title>X_P</title>
<text text-anchor="middle" x="117" y="-98.3" font-family="Times New Roman,serif" font-size="14.00">X_P</text>
</g>
<!-- X -->
<g id="node2" class="node"><title>X</title>
<text text-anchor="middle" x="207" y="-118.3" font-family="Times New Roman,serif" font-size="14.00">X*</text>
</g>
<!-- X_P&#45;&gt;X -->
<g id="edge4" class="edge"><title>X_P&#45;&gt;X</title>
<path fill="none" stroke="black" d="M144.403,-108.001C152.481,-109.837 161.507,-111.888 170.105,-113.842"/>
<polygon fill="black" stroke="black" points="169.392,-117.269 179.919,-116.072 170.943,-110.443 169.392,-117.269"/>
</g>
<!-- X_F -->
<g id="node3" class="node"><title>X_F</title>
<text text-anchor="middle" x="297" y="-98.3" font-family="Times New Roman,serif" font-size="14.00">X_F*</text>
</g>
<!-- X_P&#45;&gt;X_F -->
<g id="edge7" class="edge"><title>X_P&#45;&gt;X_F</title>
<path fill="none" stroke="black" d="M144.191,-98.3826C155.222,-97.0309 168.211,-95.6634 180,-95 203.962,-93.6516 210.038,-93.6516 234,-95 242.381,-95.4716 251.369,-96.2991 259.829,-97.2238"/>
<polygon fill="black" stroke="black" points="259.472,-100.706 269.809,-98.3826 260.28,-93.7526 259.472,-100.706"/>
</g>
<!-- Y_P -->
<g id="node4" class="node"><title>Y_P</title>
<text text-anchor="middle" x="387" y="-198.3" font-family="Times New Roman,serif" font-size="14.00">Y_P</text>
</g>
<!-- X_P&#45;&gt;Y_P -->
<g id="edge14" class="edge"><title>X_P&#45;&gt;Y_P</title>
<path fill="none" stroke="black" d="M137.598,-120.089C149.176,-129.91 164.555,-141.535 180,-149 235.938,-176.037 307.324,-190.428 349.694,-197.117"/>
<polygon fill="black" stroke="black" points="349.401,-200.613 359.813,-198.655 350.453,-193.692 349.401,-200.613"/>
</g>
<!-- X&#45;&gt;X_F -->
<g id="edge8" class="edge"><title>X&#45;&gt;X_F</title>
<path fill="none" stroke="black" d="M234.403,-115.999C242.481,-114.163 251.507,-112.112 260.105,-110.158"/>
<polygon fill="black" stroke="black" points="260.943,-113.557 269.919,-107.928 259.392,-106.731 260.943,-113.557"/>
</g>
<!-- Y -->
<g id="node5" class="node"><title>Y</title>
<text text-anchor="middle" x="387" y="-144.3" font-family="Times New Roman,serif" font-size="14.00">Y</text>
</g>
<!-- X&#45;&gt;Y -->
<g id="edge12" class="edge"><title>X&#45;&gt;Y</title>
<path fill="none" stroke="black" d="M234.265,-125.836C264.851,-130.304 315.551,-137.71 349.843,-142.719"/>
<polygon fill="black" stroke="black" points="349.517,-146.208 359.918,-144.19 350.529,-139.282 349.517,-146.208"/>
</g>
<!-- Y_F -->
<g id="node6" class="node"><title>Y_F</title>
<text text-anchor="middle" x="387" y="-90.3" font-family="Times New Roman,serif" font-size="14.00">Y_F</text>
</g>
<!-- X_F&#45;&gt;Y_F -->
<g id="edge10" class="edge"><title>X_F&#45;&gt;Y_F</title>
<path fill="none" stroke="black" d="M324.403,-99.5997C332.393,-98.8733 341.311,-98.0627 349.824,-97.2887"/>
<polygon fill="black" stroke="black" points="350.277,-100.762 359.919,-96.371 349.643,-93.7908 350.277,-100.762"/>
</g>
<!-- Z_P -->
<g id="node7" class="node"><title>Z_P</title>
<text text-anchor="middle" x="477" y="-212.3" font-family="Times New Roman,serif" font-size="14.00">Z_P</text>
</g>
<!-- Y_P&#45;&gt;Z_P -->
<g id="edge15" class="edge"><title>Y_P&#45;&gt;Z_P</title>
<path fill="none" stroke="black" d="M414.403,-206.2C422.393,-207.472 431.311,-208.89 439.824,-210.245"/>
<polygon fill="black" stroke="black" points="439.493,-213.736 449.919,-211.851 440.593,-206.823 439.493,-213.736"/>
</g>
<!-- M1?@@100@@#EX_Y_M1 -->
<g id="node13" class="node"><title>M1?@@100@@#EX_Y_M1</title>
<text text-anchor="middle" x="477" y="-50.3" font-family="Times New Roman,serif" font-size="14.00">M1?*</text>
</g>
<!-- Y_P&#45;&gt;M1?@@100@@#EX_Y_M1 -->
<g id="edge19" class="edge"><title>Y_P&#45;&gt;M1?@@100@@#EX_Y_M1</title>
<path fill="none" stroke="black" d="M414.116,-184.573C417.122,-181.672 419.867,-178.467 422,-175 445.064,-137.508 417.887,-114.826 442,-78 442.334,-77.49 442.683,-76.9875 443.045,-76.4926"/>
<polygon fill="black" stroke="black" points="445.632,-78.8505 449.892,-69.15 440.513,-74.0765 445.632,-78.8505"/>
</g>
<!-- Z -->
<g id="node8" class="node"><title>Z</title>
<text text-anchor="middle" x="477" y="-158.3" font-family="Times New Roman,serif" font-size="14.00">Z</text>
</g>
<!-- Y&#45;&gt;Z -->
<g id="edge13" class="edge"><title>Y&#45;&gt;Z</title>
<path fill="none" stroke="black" d="M414.403,-152.2C422.393,-153.472 431.311,-154.89 439.824,-156.245"/>
<polygon fill="black" stroke="black" points="439.493,-159.736 449.919,-157.851 440.593,-152.823 439.493,-159.736"/>
</g>
<!-- Y&#45;&gt;M1?@@100@@#EX_Y_M1 -->
<g id="edge20" class="edge"><title>Y&#45;&gt;M1?@@100@@#EX_Y_M1</title>
<path fill="none" stroke="black" d="M413.739,-129.754C416.73,-127.02 419.574,-124.078 422,-121 435.047,-104.447 428.49,-94.1784 442,-78 442.217,-77.74 442.438,-77.4815 442.661,-77.2246"/>
<polygon fill="black" stroke="black" points="445.139,-79.6978 449.882,-70.2244 440.266,-74.6718 445.139,-79.6978"/>
</g>
<!-- Z_F -->
<g id="node9" class="node"><title>Z_F</title>
<text text-anchor="middle" x="477" y="-104.3" font-family="Times New Roman,serif" font-size="14.00">Z_F</text>
</g>
<!-- Y_F&#45;&gt;Z_F -->
<g id="edge11" class="edge"><title>Y_F&#45;&gt;Z_F</title>
<path fill="none" stroke="black" d="M414.403,-98.2005C422.393,-99.4717 431.311,-100.89 439.824,-102.245"/>
<polygon fill="black" stroke="black" points="439.493,-105.736 449.919,-103.851 440.593,-98.823 439.493,-105.736"/>
</g>
<!-- Y_F&#45;&gt;M1?@@100@@#EX_Y_M1 -->
<g id="edge21" class="edge"><title>Y_F&#45;&gt;M1?@@100@@#EX_Y_M1</title>
<path fill="none" stroke="black" d="M414.403,-81.9987C422.657,-78.247 431.9,-74.0457 440.665,-70.0615"/>
<polygon fill="black" stroke="black" points="442.264,-73.1794 449.919,-65.855 439.367,-66.8068 442.264,-73.1794"/>
</g>
<!-- M2?@@100@@#EX_Z_M2 -->
<g id="node12" class="node"><title>M2?@@100@@#EX_Z_M2</title>
<text text-anchor="middle" x="567" y="-158.3" font-family="Times New Roman,serif" font-size="14.00">M2?*</text>
</g>
<!-- Z_P&#45;&gt;M2?@@100@@#EX_Z_M2 -->
<g id="edge16" class="edge"><title>Z_P&#45;&gt;M2?@@100@@#EX_Z_M2</title>
<path fill="none" stroke="black" d="M504.403,-199.798C512.832,-194.626 522.293,-188.82 531.224,-183.34"/>
<polygon fill="black" stroke="black" points="533.226,-186.218 539.919,-178.004 529.565,-180.251 533.226,-186.218"/>
</g>
<!-- Z&#45;&gt;M2?@@100@@#EX_Z_M2 -->
<g id="edge17" class="edge"><title>Z&#45;&gt;M2?@@100@@#EX_Z_M2</title>
<path fill="none" stroke="black" d="M504.403,-162C512.393,-162 521.311,-162 529.824,-162"/>
<polygon fill="black" stroke="black" points="529.919,-165.5 539.919,-162 529.919,-158.5 529.919,-165.5"/>
</g>
<!-- Z_F&#45;&gt;M2?@@100@@#EX_Z_M2 -->
<g id="edge18" class="edge"><title>Z_F&#45;&gt;M2?@@100@@#EX_Z_M2</title>
<path fill="none" stroke="black" d="M504.403,-124.202C512.832,-129.374 522.293,-135.18 531.224,-140.66"/>
<polygon fill="black" stroke="black" points="529.565,-143.749 539.919,-145.996 533.226,-137.782 529.565,-143.749"/>
</g>
<!-- M1@@4@@M_1 -->
<g id="node10" class="node"><title>M1@@4@@M_1</title>
<text text-anchor="middle" x="27" y="-14.3" font-family="Times New Roman,serif" font-size="14.00">M1</text>
</g>
<!-- M1@@4@@M_1&#45;&gt;X_P -->
<g id="edge1" class="edge"><title>M1@@4@@M_1&#45;&gt;X_P</title>
<path fill="none" stroke="black" d="M47.0947,-36.2267C59.5489,-48.1149 75.9725,-63.7919 89.6615,-76.8587"/>
<polygon fill="black" stroke="black" points="87.2923,-79.4358 96.9426,-83.8088 92.1257,-74.3723 87.2923,-79.4358"/>
</g>
<!-- M1@@4@@M_1&#45;&gt;X -->
<g id="edge3" class="edge"><title>M1@@4@@M_1&#45;&gt;X</title>
<path fill="none" stroke="black" d="M54.0975,-29.09C78.1174,-39.697 114.398,-56.7413 144,-75 154.957,-81.7585 166.35,-89.9995 176.335,-97.6822"/>
<polygon fill="black" stroke="black" points="174.319,-100.549 184.35,-103.96 178.635,-95.0383 174.319,-100.549"/>
</g>
<!-- M1@@4@@M_1&#45;&gt;X_F -->
<g id="edge6" class="edge"><title>M1@@4@@M_1&#45;&gt;X_F</title>
<path fill="none" stroke="black" d="M54.0532,-21.269C77.7306,-24.5281 113.516,-30.1764 144,-38 184.978,-48.517 195.207,-52.1201 234,-69 242.868,-72.8587 252.192,-77.4939 260.839,-82.0542"/>
<polygon fill="black" stroke="black" points="259.437,-85.2746 269.901,-86.9328 262.755,-79.1109 259.437,-85.2746"/>
</g>
<!-- M2@@4@@M_2 -->
<g id="node11" class="node"><title>M2@@4@@M_2</title>
<text text-anchor="middle" x="27" y="-98.3" font-family="Times New Roman,serif" font-size="14.00">M2</text>
</g>
<!-- M2@@4@@M_2&#45;&gt;X_P -->
<g id="edge2" class="edge"><title>M2@@4@@M_2&#45;&gt;X_P</title>
<path fill="none" stroke="black" d="M54.4029,-102C62.3932,-102 71.3106,-102 79.8241,-102"/>
<polygon fill="black" stroke="black" points="79.919,-105.5 89.919,-102 79.919,-98.5001 79.919,-105.5"/>
</g>
<!-- M2@@4@@M_2&#45;&gt;X -->
<g id="edge5" class="edge"><title>M2@@4@@M_2&#45;&gt;X</title>
<path fill="none" stroke="black" d="M54.2597,-118.175C62.7922,-122.585 72.5129,-126.76 82,-129 111.012,-135.849 144.852,-133.259 169.845,-129.427"/>
<polygon fill="black" stroke="black" points="170.689,-132.835 179.975,-127.733 169.534,-125.931 170.689,-132.835"/>
</g>
<!-- M2@@4@@M_2&#45;&gt;X_F -->
<g id="edge9" class="edge"><title>M2@@4@@M_2&#45;&gt;X_F</title>
<path fill="none" stroke="black" d="M54.2597,-85.8248C62.7922,-81.4153 72.5129,-77.2396 82,-75 143.745,-60.4239 217.49,-76.9655 260.31,-89.8218"/>
<polygon fill="black" stroke="black" points="259.402,-93.2047 269.99,-92.8249 261.476,-86.519 259.402,-93.2047"/>
</g>
</g>
</svg>
