<?xml version="1.0" encoding="UTF-8" standalone="no"?>
<!DOCTYPE svg PUBLIC "-//W3C//DTD SVG 1.1//EN"
 "http://www.w3.org/Graphics/SVG/1.1/DTD/svg11.dtd">
<!-- Generated by graphviz version 2.38.0 (20140413.2041)
 -->
<!-- Title: %3 Pages: 1 -->
<svg width="602pt" height="98pt"
 viewBox="0.00 0.00 602.00 98.00" xmlns="http://www.w3.org/2000/svg" xmlns:xlink="http://www.w3.org/1999/xlink">
<g id="graph0" class="graph" transform="scale(1 1) rotate(0) translate(4 94)">
<title>%3</title>
<polygon fill="white" stroke="none" points="-4,4 -4,-94 598,-94 598,4 -4,4"/>
<!-- M1@@4@@M_1 -->
<g id="node1" class="node"><title>M1@@4@@M_1</title>
<text text-anchor="middle" x="27" y="-68.3" font-family="Times New Roman,serif" font-size="14.00">M1</text>
</g>
<!-- enc_M1+M2_X -->
<g id="node8" class="node"><title>enc_M1+M2_X</title>
<polygon fill="none" stroke="black" points="144,-63 90,-63 90,-27 144,-27 144,-63"/>
<text text-anchor="middle" x="117" y="-41.3" font-family="Times New Roman,serif" font-size="14.00"> </text>
</g>
<!-- M1@@4@@M_1&#45;&gt;enc_M1+M2_X -->
<g id="edge1" class="edge"><title>M1@@4@@M_1&#45;&gt;enc_M1+M2_X</title>
<path fill="none" stroke="black" d="M54.4029,-63.8991C62.481,-61.4206 71.5067,-58.6514 80.1046,-56.0134"/>
<polygon fill="black" stroke="black" points="81.3855,-59.2815 89.919,-53.0021 79.3322,-52.5894 81.3855,-59.2815"/>
</g>
<!-- M2@@4@@M_2 -->
<g id="node2" class="node"><title>M2@@4@@M_2</title>
<text text-anchor="middle" x="27" y="-14.3" font-family="Times New Roman,serif" font-size="14.00">M2</text>
</g>
<!-- M2@@4@@M_2&#45;&gt;enc_M1+M2_X -->
<g id="edge2" class="edge"><title>M2@@4@@M_2&#45;&gt;enc_M1+M2_X</title>
<path fill="none" stroke="black" d="M54.4029,-26.1009C62.481,-28.5794 71.5067,-31.3486 80.1046,-33.9866"/>
<polygon fill="black" stroke="black" points="79.3322,-37.4106 89.919,-36.9979 81.3855,-30.7185 79.3322,-37.4106"/>
</g>
<!-- X -->
<g id="node3" class="node"><title>X</title>
<text text-anchor="middle" x="207" y="-41.3" font-family="Times New Roman,serif" font-size="14.00">X</text>
</g>
<!-- Y -->
<g id="node4" class="node"><title>Y</title>
<text text-anchor="middle" x="297" y="-41.3" font-family="Times New Roman,serif" font-size="14.00">Y</text>
</g>
<!-- X&#45;&gt;Y -->
<g id="edge8" class="edge"><title>X&#45;&gt;Y</title>
<path fill="none" stroke="black" d="M234.403,-45C242.393,-45 251.311,-45 259.824,-45"/>
<polygon fill="black" stroke="black" points="259.919,-48.5001 269.919,-45 259.919,-41.5001 259.919,-48.5001"/>
</g>
<!-- Z -->
<g id="node5" class="node"><title>Z</title>
<text text-anchor="middle" x="387" y="-68.3" font-family="Times New Roman,serif" font-size="14.00">Z</text>
</g>
<!-- Y&#45;&gt;Z -->
<g id="edge9" class="edge"><title>Y&#45;&gt;Z</title>
<path fill="none" stroke="black" d="M324.403,-53.1009C332.481,-55.5794 341.507,-58.3486 350.105,-60.9866"/>
<polygon fill="black" stroke="black" points="349.332,-64.4106 359.919,-63.9979 351.386,-57.7185 349.332,-64.4106"/>
</g>
<!-- enc_Y_M1? -->
<g id="node9" class="node"><title>enc_Y_M1?</title>
<polygon fill="none" stroke="black" points="414,-36 360,-36 360,-0 414,-0 414,-36"/>
<text text-anchor="middle" x="387" y="-14.3" font-family="Times New Roman,serif" font-size="14.00"> </text>
</g>
<!-- Y&#45;&gt;enc_Y_M1? -->
<g id="edge4" class="edge"><title>Y&#45;&gt;enc_Y_M1?</title>
<path fill="none" stroke="black" d="M324.403,-36.8991C332.481,-34.4206 341.507,-31.6514 350.105,-29.0134"/>
<polygon fill="black" stroke="black" points="351.386,-32.2815 359.919,-26.0021 349.332,-25.5894 351.386,-32.2815"/>
</g>
<!-- enc_Z_M2? -->
<g id="node10" class="node"><title>enc_Z_M2?</title>
<polygon fill="none" stroke="black" points="504,-90 450,-90 450,-54 504,-54 504,-90"/>
<text text-anchor="middle" x="477" y="-68.3" font-family="Times New Roman,serif" font-size="14.00"> </text>
</g>
<!-- Z&#45;&gt;enc_Z_M2? -->
<g id="edge6" class="edge"><title>Z&#45;&gt;enc_Z_M2?</title>
<path fill="none" stroke="black" d="M414.403,-72C422.393,-72 431.311,-72 439.824,-72"/>
<polygon fill="black" stroke="black" points="439.919,-75.5001 449.919,-72 439.919,-68.5001 439.919,-75.5001"/>
</g>
<!-- M1?@@100@@#EX_Y_M1 -->
<g id="node6" class="node"><title>M1?@@100@@#EX_Y_M1</title>
<text text-anchor="middle" x="477" y="-14.3" font-family="Times New Roman,serif" font-size="14.00">M1</text>
</g>
<!-- M2?@@100@@#EX_Z_M2 -->
<g id="node7" class="node"><title>M2?@@100@@#EX_Z_M2</title>
<text text-anchor="middle" x="567" y="-68.3" font-family="Times New Roman,serif" font-size="14.00">M2</text>
</g>
<!-- enc_M1+M2_X&#45;&gt;X -->
<g id="edge3" class="edge"><title>enc_M1+M2_X&#45;&gt;X</title>
<path fill="none" stroke="black" d="M144.403,-45C152.393,-45 161.311,-45 169.824,-45"/>
<polygon fill="black" stroke="black" points="169.919,-48.5001 179.919,-45 169.919,-41.5001 169.919,-48.5001"/>
</g>
<!-- enc_Y_M1?&#45;&gt;M1?@@100@@#EX_Y_M1 -->
<g id="edge5" class="edge"><title>enc_Y_M1?&#45;&gt;M1?@@100@@#EX_Y_M1</title>
<path fill="none" stroke="black" d="M414.403,-18C422.393,-18 431.311,-18 439.824,-18"/>
<polygon fill="black" stroke="black" points="439.919,-21.5001 449.919,-18 439.919,-14.5001 439.919,-21.5001"/>
</g>
<!-- enc_Z_M2?&#45;&gt;M2?@@100@@#EX_Z_M2 -->
<g id="edge7" class="edge"><title>enc_Z_M2?&#45;&gt;M2?@@100@@#EX_Z_M2</title>
<path fill="none" stroke="black" d="M504.403,-72C512.393,-72 521.311,-72 529.824,-72"/>
<polygon fill="black" stroke="black" points="529.919,-75.5001 539.919,-72 529.919,-68.5001 529.919,-75.5001"/>
</g>
</g>
</svg>
